<?xml version="1.0" encoding="utf-8"?>
<!-- Generator: Adobe Illustrator 19.2.1, SVG Export Plug-In . SVG Version: 6.00 Build 0)  -->
<svg version="1.1" id="Ebene_1" xmlns="http://www.w3.org/2000/svg" xmlns:xlink="http://www.w3.org/1999/xlink" x="0px" y="0px"
	 viewBox="0 0 543.2 214.5" enable-background="new 0 0 543.2 214.5" xml:space="preserve">
<g>
	<g>
		<defs>
			<path id="SVGID_1_" d="M403,172.5c0.3-0.8,0.6-1.7,0.8-2.6l0,0c1.8-5.9-1.1-8.9-2.9-11.9l0,0c-2-3.4,3-7.3,2.4-1.2l0,0
				c-0.7,6.9,3.4,8.9,3.4,8.9l0,0c-4.9-6.2-0.6-9.1-1.2-13.2l0,0c-0.3-2.2-2.2-2.4-3.3-3.1l0,0c-0.3-0.2-0.6-0.6-0.6-1.2l0,0
				c0-0.8,0.8-1.9,0.9-2l0,0c0.1-0.1,0.6-0.5,0.7,0.3l0,0c0.1,0.7,0.3,0.9,0.3,0.9l0,0c0.1,0.1,0.2,0.2,0.3,0.3l0,0
				c1.7,1,3.7,2,2.8,7.6l0,0c-1,6.4,1.6,7,1.6,7l0,0c0,0-1.6-2.1-0.7-5.6l0,0c1-3.5,0.7-6.5-1.2-9.1l0,0c-2-2.6,4.5-5.9,2.9,0.1l0,0
				c-1.7,6.4,0.9,6.3,0.9,6.3l0,0c0,0-1.9-0.4,0-5.2l0,0c2.9-7.5-3.3-6.9-2.6-9.5l0,0c0.6-2.3,3-0.6,3.4,1.6l0,0
				c0.4-5.6-4.7-2.7-2.8-8.2l0,0c2.4-7-0.5-9.6-0.5-9.6l0,0c1.4,3.8-0.3,9.4-1.9,11.4l0,0c-1,1.3-2.5,3.1-4.6,2.2l0,0
				c-4.4-1.9,0-5.1,0-5.1l-2.3-2.6c-1.4,1.9-1.9,3.6-1,7.7l0,0c0.6,3-3.6,1.4-5.2,0.2l0,0c-3.7-2.7-3.4-8.4-3.4-8.4l0,0
				c-0.6,2.4-0.1,7.6,3.3,10.5l0,0c2.2,1.9,1.2,4.4,0.2,7l0,0c-0.8,2-1.7,4.1-0.9,5.9l0,0c0.2-3.6,2-6.1,3.1-6.5l0,0
				c0.8-0.3,1.3,0.5,0.5,2.8l0,0c-2.7,8,2.7,9.2,2.7,9.2l0,0c-1.5-1-2.5-2.5-1.9-6.1l0,0c0.7-3.1,1.3-4.2,1.8-4.3l0,0
				c1.4-0.1-0.2,3.6-0.2,3.6l0,0c0,0,2.5-2.4,1.1-5.6l0,0c-0.4-1-0.2-2,0.4-2.2l0,0c0.6-0.2,1.2,0.3,1.4,1.1l0,0
				c0.3,1.5-0.6,4.2-1.9,5.9l0,0c-2.9,3.6-1.3,5.3-0.8,5.6l0,0c0.9,1.2,0.8,2.8,0.5,4.1l0,0c-2.4,5.6,1.9,7,1.9,7l0,0
				c-2.8-1.4-2.5-7.1,0.2-4.3l0,0c1.9,2,1.4,5.8,0.9,7.8l0,0c0,0.1-0.1,0.2-0.1,0.4l0,0c-4,11.3,2.5,12.9,2.5,12.9l0,0
				C400.3,180.5,401.5,177.1,403,172.5"/>
		</defs>
		<clipPath id="SVGID_2_">
			<use xlink:href="#SVGID_1_"  overflow="visible"/>
		</clipPath>
		<g clip-path="url(#SVGID_2_)">
			<g>
				<defs>
					<polygon id="SVGID_3_" points="421.5,111 424.9,177.6 374.6,187.4 371.3,120.8 					"/>
				</defs>
				<clipPath id="SVGID_4_">
					<use xlink:href="#SVGID_3_"  overflow="visible"/>
				</clipPath>
				
					<linearGradient id="SVGID_5_" gradientUnits="userSpaceOnUse" x1="-94.5" y1="-90" x2="-93.5" y2="-90" gradientTransform="matrix(2.8886 56.9216 51.4337 -10.0835 5300.4702 4575.9971)">
					<stop  offset="0" style="stop-color:#FFFF00"/>
					<stop  offset="1" style="stop-color:#F15A24"/>
				</linearGradient>
				<polygon clip-path="url(#SVGID_4_)" fill="url(#SVGID_5_)" points="421.5,111 424.9,177.6 374.6,187.4 371.3,120.8 				"/>
			</g>
		</g>
	</g>
	<g>
		<defs>
			<path id="SVGID_6_" d="M407.4,139.2c0.6-2.3,3.3-0.8,3.5,0.2l0,0c0.1-1.6-2.1-1.7-3.1-3.4l0,0c-1.1-1.8,2.4-6.7,0.8-10.9l0,0
				c0.7,3.1-1.5,12.1-6.2,12.4l0,0c-4,0.3-4.2-5.5-4-7l0,0c-0.6,0.7-0.4,2.3-0.2,3.8l0,0c0.3,2.1,0.5,4.3-1.2,4.7l0,0
				c-1.8,0.3-6.1-1.5-7.6-6.3l0,0c0.3,5.9,6.9,6.3,4.4,10.7l0,0c-0.3,0.6-0.9,2.3-1.1,3.5l0,0c0,0,2.3-6.2,3.1-3.1l0,0
				c0.8,3.1,7.2-7.4,5.9-0.6l0,0c0.4-0.7,2.4-4,2.4-0.9l0,0c0,2.7,1.3,3.9,1.3,3.9l0,0c0.1-4.7,3.4-3.5,4.2-2.8l0,0
				C409.6,142.4,406.6,142,407.4,139.2"/>
		</defs>
		<clipPath id="SVGID_7_">
			<use xlink:href="#SVGID_6_"  overflow="visible"/>
		</clipPath>
		<g clip-path="url(#SVGID_7_)">
			<g>
				<defs>
					<polygon id="SVGID_8_" points="415,127.1 407.1,151.3 385.6,145 393.5,120.9 					"/>
				</defs>
				<clipPath id="SVGID_9_">
					<use xlink:href="#SVGID_8_"  overflow="visible"/>
				</clipPath>
				
					<linearGradient id="SVGID_10_" gradientUnits="userSpaceOnUse" x1="-94.5" y1="-90" x2="-93.5" y2="-90" gradientTransform="matrix(-8.4709 25.9107 22.2403 6.4697 1603.6863 3160.0034)">
					<stop  offset="0" style="stop-color:#FFFF00"/>
					<stop  offset="0.4695" style="stop-color:#F8AB12"/>
					<stop  offset="0.8285" style="stop-color:#F3711F"/>
					<stop  offset="1" style="stop-color:#F15A24"/>
				</linearGradient>
				<polygon clip-path="url(#SVGID_9_)" fill="url(#SVGID_10_)" points="415,127.1 407.1,151.3 385.6,145 393.5,120.9 				"/>
			</g>
		</g>
	</g>
</g>
<g>
	<path fill="#272223" d="M299.5,72.4c4-0.9,9.2-1.3,14.9-1.3c6.3,0,12.4,0.8,17.1,4.8c3.6,3,5.1,7.5,5.1,12.2c0,6-3.1,11.8-9.8,14.7
		v0.4c7.8,2.2,12,8.7,12,16.1c0,5.6-1.8,9.9-5,13.2c-4,4.4-10.8,6.8-22.1,6.8c-5,0-9.2-0.3-12.2-0.7V72.4z M312.6,99.1h2.8
		c4.7,0,8.3-4,8.3-9.5c0-4.9-2.3-8.7-7.7-8.7c-1.4,0-2.6,0.1-3.4,0.4V99.1z M312.6,129c0.8,0.2,1.7,0.2,2.9,0.2
		c5.3,0,9.7-3.2,9.7-10.1c0-6.7-4.6-10.2-9.8-10.3h-2.8V129z"/>
	<path fill="#272223" d="M363.5,138.8l-0.7-4.8h-0.2c-2.7,3.8-6.5,5.6-10.8,5.6c-7.4,0-12.9-6.2-12.9-14.9
		c0-12.8,11.3-18.1,22.4-18.2v-1.1c0-3.8-2.3-6.6-6.9-6.6c-3.9,0-7.1,1-10,2.8l-2.4-8.8c2.7-1.6,8.4-3.7,15.2-3.7
		c14.9,0,17.3,10.4,17.3,20.3v18.2c0,3.9,0.2,7.9,0.8,11.2H363.5z M361.7,115c-4.4,0.1-10.4,1.5-10.4,8.3c0,4.9,2.7,6.7,4.7,6.7
		c2.1,0,4.5-1.3,5.4-4.2c0.2-0.7,0.3-1.5,0.3-2.3V115z"/>
	<path fill="#600C0C" d="M422.7,149.8c-6.4-2.4-13.5-5.8-19-8.8c-1.7-0.8-2.9-1.4-3.5-1.4c-14.4,0-22.1-13-22.1-35
		c0-18.1,14.4-33.3,23.5-46.6c7.1,12.7,21.3,30.5,21.3,45.9c0,16.7-2.7,27.1-9.6,30.5v0.5c4.7,1.9,9.9,3.4,14.5,5L422.7,149.8z
		 M409.3,104.5c0-12.6-2.1-20.5-8.5-20.5c-5.9,0-8.9,8.1-8.9,20.8c-0.1,13.7,2.5,23.4,8.9,23.4C406.8,128.2,409.3,118.5,409.3,104.5
		z"/>
	<path fill="#272223" d="M437.1,119c0.2,7.6,4.6,10.4,10.4,10.4c3.7,0,7-0.8,9.3-1.6l1.8,9.4c-3.4,1.3-8.5,2.2-13.5,2.2
		c-13.3,0-20.6-8.8-20.6-24.1c0-16.4,8.5-26.2,19.6-26.2c10.5,0,16.6,8.3,16.6,23.1c0,3.5-0.1,5.4-0.4,6.8H437.1z M448.8,109.8
		c0-6.3-1.6-11.2-5.5-11.2c-4.3,0-6,6.3-6.1,11.2H448.8z"/>
	<path fill="#272223" d="M463.1,104.6c0-5.4-0.3-10.1-0.4-14.7H474l0.6,5.6h0.2c2.6-3.9,6.8-6.4,11.9-6.4c9.3,0,13,7.4,13,18.3v31.4
		h-13.1v-30.6c0-4.2-1-8.1-4.8-8.1c-2.2,0-4,1.5-4.9,4.4c-0.4,1-0.7,2.6-0.7,4.5v29.8h-13.1V104.6z"/>
	<path fill="#272223" d="M539.4,69.6v54.7c0,4.7,0.2,10,0.4,14.5h-11.3l-0.7-5.5h-0.2c-1.8,3.4-5.7,6.3-10.2,6.3
		c-10.4,0-15.2-11.5-15.2-25.2c0-17,7.4-25.3,15.7-25.3c4.3,0,7,2.1,8.2,4.9h0.2V69.6H539.4z M526.3,108.7c0-0.9,0-1.9-0.1-2.9
		c-0.5-3-2.1-5.7-4.7-5.7c-4.6,0-6.3,6.7-6.3,14.6c0,9.3,2.5,14.2,6.2,14.2c1.6,0,3.5-0.9,4.5-4.3c0.3-0.7,0.4-1.8,0.4-3V108.7z"/>
</g>
<g>
	<g>
		<path fill="#600C0C" d="M393,135.5c0.1,0.1,0.2,0.1,0.3,0.2v0.2c-2.1,0.9-4.4,1.6-6.4,2.4l2.2,4.7c2.8-1.1,6-2.8,8.4-4.2
			c0.7-0.4,1.3-0.7,1.6-0.7c2.5,0,4.6-0.9,6.2-2.7H393z"/>
	</g>
</g>
<g>
	<path d="M255.5,89v16.1H271v5.9h-15.6v16.3h-6V111h-15.6v-5.9h15.6V89H255.5z"/>
</g>
<g>
	<polygon fill="#DD0031" points="118.5,10.7 118.5,10.7 118.5,10.7 25.4,43.9 39.6,167 118.5,210.7 118.5,210.7 118.5,210.7 
		197.4,167 211.6,43.9 	"/>
	<polygon fill="#C3002F" points="118.5,10.7 118.5,32.9 118.5,32.8 118.5,134.1 118.5,134.1 118.5,210.7 118.5,210.7 197.4,167 
		211.6,43.9 	"/>
	<path fill="#FFFFFF" d="M118.5,32.8L60.3,163.3l0,0H82l0,0l11.7-29.2h49.4l11.7,29.2l0,0h21.7l0,0L118.5,32.8L118.5,32.8
		L118.5,32.8L118.5,32.8L118.5,32.8z M135.5,116.1h-34l17-40.9L135.5,116.1z"/>
</g>
</svg>
